<svg width="61" height="63" viewBox="0 0 61 63" fill="none" xmlns="http://www.w3.org/2000/svg">
<path d="M0.797852 12.4472V61.4707C0.797852 62.1618 1.35765 62.7206 2.04771 62.7206H43.2281C43.9187 62.7206 44.478 62.1613 44.478 61.4707V12.4472C44.478 11.7561 43.9182 11.1974 43.2281 11.1974H33.9727C33.3809 9.51796 31.7941 8.30319 29.9149 8.30319H28.7242L28.7236 6.29835C28.7236 2.94587 25.9963 0.218994 22.6307 0.218994C19.2793 0.218994 16.5519 2.94627 16.5519 6.29835V8.30266H15.3737C13.494 8.30266 11.9082 9.51747 11.3165 11.1968H2.04793C1.35734 11.1968 0.798065 11.7561 0.798065 12.4472L0.797852 12.4472ZM15.3738 10.8029H17.8019C18.4924 10.8029 19.0517 10.2436 19.0517 9.55305V6.29835C19.0517 4.32444 20.6568 2.71872 22.6438 2.71872C24.6172 2.71872 26.2229 4.32377 26.2229 6.29781V9.55252C26.2229 10.2436 26.7827 10.8024 27.4728 10.8024H29.9134C30.9164 10.8024 31.7314 11.618 31.7314 12.6199V15.4251L13.5567 15.4256V12.6204C13.5567 11.618 14.3718 10.8029 15.3742 10.8029L15.3738 10.8029ZM3.29731 13.6971H11.0561V16.6755C11.0561 17.3666 11.6159 17.9253 12.3059 17.9253H32.9825C33.6731 17.9253 34.2324 17.3661 34.2324 16.6755V13.6971H41.9774V60.2214H3.29758L3.29731 13.6971Z" fill="#E2231A"/>
<path d="M49.9351 55.413C49.9529 55.5239 49.9838 55.629 50.0303 55.7316C50.046 55.7661 50.0602 55.7996 50.079 55.8331C50.0963 55.8634 50.1046 55.8974 50.124 55.9262L54.3989 62.1766C54.6322 62.5172 55.0183 62.7207 55.4311 62.7207C55.8439 62.7207 56.23 62.5167 56.4628 62.1761L60.7377 55.9257C60.78 55.8639 60.8036 55.7938 60.8339 55.7258C60.8496 55.6902 60.8721 55.6583 60.8841 55.6217C60.9286 55.493 60.9558 55.3586 60.9558 55.2204V22.6814C60.9558 19.6344 58.477 17.1561 55.4305 17.1561C52.3841 17.1561 49.9053 19.6344 49.9053 22.6814L49.9058 55.2204C49.9058 55.2461 49.9157 55.2701 49.9173 55.2958C49.9199 55.3361 49.9288 55.3732 49.9351 55.413ZM58.4561 52.7752C57.3087 52.1646 56.1321 51.8946 54.9356 51.9695C53.9563 52.0349 53.1119 52.3388 52.406 52.7061V28.0316H58.4561V52.7752ZM55.4311 59.2563L52.7953 55.4031C53.3268 54.9939 54.1341 54.5226 55.1234 54.4624C56.0746 54.4116 57.0451 54.7522 58.0265 55.4617L55.4311 59.2563ZM55.4311 19.6563C57.0995 19.6563 58.4561 21.014 58.4561 22.6813V25.5321H52.406V22.6819C52.406 21.014 53.7627 19.6563 55.4311 19.6563Z" fill="#E2231A"/>
<path d="M8.57408 26.3375H22.846C23.5366 26.3375 24.0959 25.7783 24.0959 25.0877C24.0959 24.3965 23.5361 23.8378 22.846 23.8378L8.57408 23.8373C7.8835 23.8373 7.32422 24.3966 7.32422 25.0871C7.32422 25.7783 7.88402 26.3375 8.57408 26.3375Z" fill="#E2231A"/>
<path d="M36.7 33.6288H8.57408C7.8835 33.6288 7.32422 34.1881 7.32422 34.8786C7.32422 35.5698 7.88402 36.1285 8.57408 36.1285H36.7C37.3906 36.1285 37.9499 35.5692 37.9499 34.8786C37.9499 34.1875 37.3906 33.6288 36.7 33.6288Z" fill="#E2231A"/>
<path d="M36.7 43.422H8.57408C7.8835 43.422 7.32422 43.9813 7.32422 44.6719C7.32422 45.363 7.88402 45.9217 8.57408 45.9217H36.7C37.3906 45.9217 37.9499 45.3624 37.9499 44.6719C37.9499 43.9807 37.3906 43.422 36.7 43.422Z" fill="#E2231A"/>
</svg>
