<svg width="41" height="63" viewBox="0 0 41 63" fill="none" xmlns="http://www.w3.org/2000/svg">
<path d="M2.06972 29.6483C1.37914 29.6483 0.819859 30.2076 0.819859 30.8982L0.819336 61.4711C0.819336 62.1622 1.37914 62.7209 2.0692 62.7209H39.683C40.3735 62.7209 40.9328 62.1617 40.9328 61.4711L40.9333 30.8982C40.9333 30.2071 40.3735 29.6483 39.6835 29.6483H34.5548L23.8506 23.1688C25.3615 22.3463 26.4927 20.9024 26.885 19.1853C27.4824 16.5643 26.4188 13.952 24.175 12.531C22.8916 11.719 22.1262 10.4383 22.1262 9.10527V8.20907H29.4182C30.1088 8.20907 30.668 7.6498 30.668 6.95921L30.6686 1.46849C30.6686 0.77737 30.1088 0.218628 29.4187 0.218628H12.3342C11.6436 0.218628 11.0843 0.777906 11.0843 1.46849V6.95921C11.0843 7.65033 11.6441 8.20907 12.3342 8.20907L19.6267 8.2096V9.10579C19.6267 11.3006 20.8269 13.3697 22.837 14.6431C24.1742 15.4901 24.8067 17.0555 24.4472 18.6287C24.149 19.9387 23.0687 21.0191 21.7587 21.3178C20.6056 21.5789 19.484 21.3314 18.5904 20.6209C17.7109 19.9188 17.206 18.8715 17.206 17.7487C17.206 17.0576 16.6462 16.4989 15.9562 16.4989C15.2656 16.4989 14.7063 17.0582 14.7063 17.7487C14.7063 19.6375 15.5544 21.3963 17.0323 22.5756C17.2233 22.7278 17.431 22.8513 17.6355 22.9784L6.61686 29.6489L2.06972 29.6483ZM13.5843 2.71841H28.1683V5.7094H13.5843V2.71841ZM38.4329 60.2212H3.31972V32.1489H14.5157V43.8167C14.5157 44.3341 14.8349 44.7982 15.3177 44.9839C15.8012 45.1696 16.3484 45.0388 16.6947 44.6532L20.8765 40.0079L25.0583 44.6527C25.3 44.9211 25.6401 45.0665 25.9875 45.0665C26.1376 45.0665 26.2893 45.0399 26.4353 44.9833C26.9182 44.7976 27.2373 44.3341 27.2373 43.8162V32.1483H38.4333L38.4329 60.2212ZM17.0157 32.1489H24.7367V40.56L21.8053 37.3033C21.5683 37.0396 21.2308 36.8894 20.8761 36.8894C20.5214 36.8894 20.184 37.0396 19.947 37.3033L17.0156 40.56L17.0157 32.1489ZM20.5844 24.1155L29.7258 29.6491H11.444L20.5844 24.1155Z" fill="#E2231A"/>
</svg>
