<svg width="64" height="63" viewBox="0 0 64 63" fill="none" xmlns="http://www.w3.org/2000/svg">
<path d="M52.8932 0.218924C50.0005 0.218924 47.3894 1.4306 45.5264 3.36635C41.2996 1.31289 36.6062 0.218924 31.8773 0.218924C19.882 0.218924 9.45018 7.01603 4.2134 16.9565C4.19561 16.9916 4.1752 17.0225 4.16055 17.0596C1.9078 21.3748 0.626465 26.2738 0.626465 31.4695C0.626465 36.6651 1.90824 41.5641 4.16055 45.8793C4.17468 45.9159 4.19561 45.9473 4.2134 45.9824C9.44991 55.9238 19.8822 62.72 31.8773 62.72C43.8742 62.72 54.307 55.9213 59.5438 45.9784C59.5605 45.9454 59.5799 45.9161 59.5935 45.881C61.8468 41.5653 63.1287 36.6653 63.1287 31.4685C63.1287 27.403 62.3523 23.4566 60.8372 19.7253C62.1499 16.5852 63.1287 13.3017 63.1287 10.452C63.1287 4.80847 58.5378 0.217651 52.8943 0.217651L52.8932 0.218924ZM52.8932 2.71865C57.1577 2.71865 60.6279 6.18885 60.6279 10.4533C60.6279 16.6241 55.2025 25.6333 52.8932 29.1865C50.584 25.6326 45.1586 16.624 45.1586 10.4533C45.1586 6.18885 48.6283 2.71865 52.8932 2.71865ZM57.6572 44.1776H45.6236C46.355 40.6687 46.7887 36.8072 46.8625 32.719H60.596C60.4197 36.818 59.3812 40.6954 57.6574 44.1776H57.6572ZM3.1572 32.719H16.8907C16.9645 36.8066 17.3982 40.6686 18.1296 44.1776H6.09596C4.37211 40.6954 3.33346 36.8181 3.1572 32.719ZM6.09583 18.7605H18.1294C17.398 22.2694 16.9643 26.1309 16.8906 30.2191H3.15707C3.33338 26.1201 4.37188 22.2427 6.09569 18.7605H6.09583ZM44.3618 30.2191H33.1255V18.7605H43.0371C43.8109 22.2611 44.2818 26.1446 44.3618 30.2191ZM33.1255 16.2606V2.86892C36.986 3.79808 40.3887 8.97332 42.415 16.2606H33.1255ZM30.6258 2.86892V16.2606H21.3363C23.3621 8.97279 26.7648 3.79802 30.6258 2.86892ZM30.6258 18.7614V30.2201H19.3895C19.4695 26.1455 19.9404 22.262 20.7142 18.7614H30.6258ZM19.3895 32.7199H30.6258V44.1786H20.7142C19.9404 40.678 19.4695 36.7944 19.3895 32.7199ZM30.6258 46.6784V60.0701C26.7653 59.141 23.3626 53.9657 21.3363 46.6784H30.6258ZM33.1255 60.0701V46.6784H42.415C40.3892 53.9662 36.9865 59.141 33.1255 60.0701ZM33.1255 44.1776V32.719H44.3618C44.2818 36.7935 43.8109 40.677 43.0372 44.1776H33.1255ZM46.8617 30.2191C46.8146 27.6096 46.62 25.0935 46.2961 22.7005C47.8128 25.7883 49.4634 28.4931 50.5778 30.2191H46.8617ZM42.6988 9.64031C41.5515 7.16884 40.2053 5.1044 38.708 3.54274C40.5307 3.98692 42.3043 4.61368 44.0014 5.40267C43.2773 6.6719 42.8201 8.10798 42.6987 9.64044L42.6988 9.64031ZM25.0411 3.54582C22.353 6.35105 20.1504 10.7798 18.7138 16.2606H7.49328C11.4135 9.99925 17.6733 5.3503 25.0412 3.54582H25.0411ZM7.49315 46.6776H18.7137C20.1504 52.1584 22.3523 56.5871 25.0409 59.3924C17.6725 57.5879 11.4132 52.939 7.49301 46.6776H7.49315ZM38.7116 59.3924C41.3996 56.5872 43.6023 52.1584 45.0389 46.6776H56.2594C52.3391 52.939 46.0794 57.5879 38.7115 59.3924H38.7116ZM60.5963 30.2191H55.2065C56.2879 28.545 57.8711 25.9453 59.3505 22.9716C60.0762 25.316 60.4911 27.7408 60.5963 30.2191Z" fill="#E2231A"/>
<path d="M52.8931 15.4541C55.6502 15.4541 57.893 13.2107 57.893 10.4541C57.893 7.69694 55.6497 5.4541 52.8931 5.4541C50.1359 5.4541 47.8931 7.69748 47.8931 10.4541C47.8925 13.2107 50.1359 15.4541 52.8931 15.4541ZM52.8931 7.95383C54.2716 7.95383 55.3933 9.07499 55.3933 10.4541C55.3933 11.8327 54.2721 12.9544 52.8931 12.9544C51.5145 12.9544 50.3928 11.8332 50.3928 10.4541C50.3928 9.07498 51.514 7.95383 52.8931 7.95383Z" fill="#E2231A"/>
</svg>
