<svg width="64" height="63" viewBox="0 0 64 63" fill="none" xmlns="http://www.w3.org/2000/svg">
<path d="M61.8774 0.218895H41.2517C40.5611 0.218895 40.0018 0.778173 40.0018 1.46876V12.6323C40.0018 13.3235 40.5616 13.8822 41.2517 13.8822H46.5116V50.4459H40.4638V20.607C40.4638 19.9159 39.904 19.3571 39.2139 19.3571H27.6098C27.5993 19.3566 27.5904 19.3508 27.5795 19.3508H17.2666C17.2556 19.3508 17.2473 19.3566 17.2363 19.3571H5.62548C4.93489 19.3571 4.37561 19.9164 4.37561 20.607V50.4459H1.87535C1.18477 50.4459 0.625488 51.0052 0.625488 51.6958V56.6958C0.625488 57.3869 1.18529 57.9456 1.87535 57.9456H4.14123V61.4702C4.14123 62.1613 4.70103 62.7201 5.39109 62.7201H18.673C19.3636 62.7201 19.9228 62.1608 19.9228 61.4702V57.9462H43.8299V61.4702C43.8299 62.1613 44.3897 62.7201 45.0797 62.7201H58.3616C59.0522 62.7201 59.6115 62.1608 59.6115 61.4702V57.9462H61.8774C62.5679 57.9462 63.1272 57.3869 63.1272 56.6963V51.6963C63.1272 51.0052 62.5674 50.4465 61.8774 50.4465H56.6163V13.8827L61.8774 13.8822C62.5679 13.8822 63.1272 13.3229 63.1272 12.6324V1.46837C63.1272 0.777248 62.5679 0.218506 61.8774 0.218506L61.8774 0.218895ZM18.5166 21.8571H26.3291V31.584L23.1581 29.2778C22.9389 29.1177 22.681 29.0387 22.4225 29.0387C22.1641 29.0387 21.9062 29.1182 21.687 29.2778L18.5165 31.584L18.5166 21.8571ZM6.87536 21.8571H16.0163V34.0387C16.0163 34.5085 16.28 34.9396 16.699 35.152C17.1191 35.3671 17.6224 35.3268 18.0018 35.0495L22.4231 31.8346L26.844 35.05C27.0617 35.2086 27.3201 35.2891 27.5796 35.2891C27.7732 35.2891 27.9678 35.2441 28.1467 35.1526C28.5658 34.9402 28.8295 34.5091 28.8295 34.0393V21.8577H37.9636V50.4457H6.87504L6.87536 21.8571ZM17.4226 60.2209H6.64097V57.9467H17.4226V60.2209ZM57.1123 60.2209H46.3307V57.9467H57.1123V60.2209ZM60.628 55.4464H3.12523V52.9462H60.628V55.4464ZM54.1172 50.4465H49.0126V13.8827H54.1172V50.4465ZM60.628 11.3822H42.5015V2.71835H60.628V11.3822Z" fill="#E2231A"/>
</svg>
